<svg width="121" height="36" viewBox="0 0 121 36" fill="none" xmlns="http://www.w3.org/2000/svg"><g clip-path="url(#clip0_0_64)"><path d="M0 4.8C0 2.149 2.141 0 4.783 0h111.434C118.859 0 121 2.149 121 4.8v26.4c0 2.651-2.141 4.8-4.783 4.8H4.783C2.14 36 0 33.851 0 31.2V4.8z" fill="#000"/><path fill-rule="evenodd" clip-rule="evenodd" d="M0 31.2V4.8C0 2.149 2.141 0 4.783 0h111.434C118.859 0 121 2.149 121 4.8v26.4c0 2.651-2.141 4.8-4.783 4.8H4.783C2.14 36 0 33.851 0 31.2zm.717 0V4.8c0-2.253 1.82-4.08 4.066-4.08h111.434a4.073 4.073 0 014.066 4.08v26.4c0 2.253-1.82 4.08-4.066 4.08H4.783A4.073 4.073 0 01.717 31.2z" fill="#fff" fill-opacity=".3"/><path d="M27.343 18.733c-.012-2.11.94-3.7 2.864-4.873-1.076-1.546-2.703-2.397-4.849-2.561-2.031-.161-4.254 1.188-5.068 1.188-.86 0-2.826-1.133-4.374-1.133-3.193.05-6.587 2.556-6.587 7.654 0 1.507.274 3.063.823 4.666.734 2.11 3.378 7.28 6.137 7.196 1.443-.034 2.463-1.027 4.34-1.027 1.822 0 2.765 1.027 4.375 1.027 2.783-.04 5.175-4.74 5.872-6.856-3.733-1.766-3.533-5.173-3.533-5.28zm-3.24-9.436c1.563-1.862 1.421-3.558 1.375-4.167-1.38.08-2.977.943-3.887 2.005-1.002 1.138-1.59 2.546-1.464 4.133 1.492.114 2.855-.656 3.976-1.97zM44.18 26.052h-1.583l-.867-2.748h-3.014l-.827 2.748h-1.541l2.986-9.355h1.845l3.001 9.355zm-2.712-3.901l-.784-2.443c-.083-.25-.238-.837-.468-1.762h-.028c-.09.398-.238.986-.44 1.762l-.77 2.443h2.49zm10.392.445c0 1.147-.307 2.054-.922 2.72-.55.592-1.234.888-2.05.888-.882 0-1.515-.32-1.9-.957h-.028V28.8h-1.486v-7.273c0-.722-.02-1.462-.055-2.22h1.307l.083 1.068h.027c.496-.805 1.248-1.207 2.258-1.207.789 0 1.448.314 1.975.943.528.63.792 1.458.792 2.485zm-1.514.055c0-.657-.146-1.198-.44-1.624-.321-.444-.753-.666-1.294-.666-.367 0-.7.123-.998.367a1.708 1.708 0 00-.584.965c-.046.186-.07.338-.07.457v1.125c0 .49.15.905.448 1.243.298.338.686.506 1.163.506.56 0 .995-.217 1.307-.652.312-.435.468-1.009.468-1.721zm9.209-.055c0 1.147-.307 2.054-.923 2.72-.55.592-1.233.888-2.05.888-.881 0-1.514-.32-1.899-.957h-.028V28.8H53.17v-7.273a46.4 46.4 0 00-.055-2.22h1.307l.083 1.068h.028c.495-.805 1.247-1.207 2.257-1.207.789 0 1.447.314 1.976.943.526.63.79 1.458.79 2.485zm-1.514.055c0-.657-.147-1.198-.44-1.624-.322-.444-.752-.666-1.294-.666-.368 0-.7.123-.998.367a1.706 1.706 0 00-.585.965 2.042 2.042 0 00-.069.457v1.125c0 .49.15.905.446 1.243.299.337.687.506 1.165.506.56 0 .995-.217 1.307-.652.312-.435.468-1.009.468-1.721zm10.117.777c0 .796-.274 1.444-.824 1.943-.604.546-1.445.82-2.527.82-.998 0-1.799-.195-2.404-.584l.344-1.249a4.049 4.049 0 002.149.598c.56 0 .995-.128 1.308-.383.312-.254.468-.596.468-1.022 0-.38-.129-.699-.386-.958-.256-.26-.683-.5-1.28-.724-1.624-.61-2.436-1.505-2.436-2.682 0-.77.285-1.4.854-1.89.568-.492 1.325-.737 2.271-.737.845 0 1.546.148 2.106.444l-.372 1.222c-.523-.287-1.114-.43-1.776-.43-.522 0-.93.13-1.224.389a1.115 1.115 0 00-.371.847c0 .37.141.675.426.916.247.222.697.462 1.35.721.798.324 1.384.703 1.761 1.138.376.433.563.975.563 1.621zm4.914-2.997h-1.638v3.275c0 .833.289 1.25.867 1.25.266 0 .486-.024.66-.07l.042 1.138c-.293.11-.679.165-1.156.165-.587 0-1.046-.18-1.377-.54-.33-.362-.496-.968-.496-1.82v-3.4h-.976v-1.124h.976V18.07l1.46-.444v1.679h1.638v1.126zm7.392 2.192c0 1.037-.294 1.888-.88 2.554-.616.685-1.434 1.027-2.452 1.027-.982 0-1.763-.328-2.346-.985-.583-.656-.874-1.485-.874-2.484 0-1.045.3-1.901.901-2.567.6-.666 1.41-1 2.429-1 .982 0 1.771.329 2.368.986.57.637.854 1.46.854 2.47zm-1.542.049c0-.622-.132-1.156-.398-1.6-.312-.54-.758-.808-1.335-.808-.597 0-1.051.27-1.363.807-.267.446-.398.988-.398 1.629 0 .622.131 1.156.398 1.6.322.538.77.807 1.35.807.567 0 1.013-.274 1.334-.821.274-.454.412-.993.412-1.614zm6.373-2.048a2.56 2.56 0 00-.468-.041c-.523 0-.927.199-1.212.597-.247.352-.371.796-.371 1.332v3.54h-1.486l.014-4.622c0-.777-.019-1.485-.056-2.123h1.295l.054 1.29h.041c.157-.443.405-.8.744-1.068.33-.241.688-.361 1.074-.361.137 0 .261.01.371.027v1.43zm6.647 1.736c0 .268-.017.495-.054.68H87.43c.017.666.233 1.176.647 1.527.376.314.862.472 1.459.472.66 0 1.262-.106 1.804-.32l.232 1.041c-.632.278-1.38.417-2.242.417-1.037 0-1.852-.308-2.444-.923-.592-.615-.888-1.441-.888-2.477 0-1.017.276-1.864.827-2.54.577-.721 1.357-1.082 2.339-1.082.964 0 1.694.36 2.19 1.082.392.573.59 1.282.59 2.123zm-1.417-.389c.01-.444-.087-.828-.288-1.152-.258-.417-.653-.625-1.185-.625-.486 0-.881.203-1.183.611a2.248 2.248 0 00-.44 1.166h3.096zM37.88 10.789h.766c.74 0 1.173.334 1.173.896v.008c0 .52-.456.862-1.15.862-.71 0-1.163-.281-1.223-.78l-.003-.03h-.819l.004.045c.056.893.848 1.5 2.04 1.5 1.155 0 2.007-.667 2.007-1.56v-.008c0-.727-.445-1.24-1.166-1.33v-.03A1.264 1.264 0 0040.51 9.12v-.007c0-.837-.74-1.414-1.823-1.414-1.129 0-1.865.558-1.92 1.473l-.005.053h.804l.003-.053c.064-.465.457-.738 1.092-.738.646 0 1.02.289 1.02.769v.007c0 .517-.415.874-1.058.874h-.743v.705zm5.5 2.482c.524 0 .976-.27 1.204-.694h.019v.623h.807v-2.72c0-.791-.61-1.301-1.57-1.301-.967 0-1.554.521-1.61 1.2l-.004.041h.763l.007-.034c.067-.315.355-.536.822-.536.5 0 .785.263.785.698v.296l-1.073.064c-.93.056-1.46.476-1.46 1.162v.008c0 .708.526 1.192 1.31 1.192zm-.496-1.211v-.008c0-.333.269-.547.755-.577l.964-.06v.307c0 .514-.434.9-1.002.9-.433 0-.717-.217-.717-.562zm6.824-2.16v-.645h-2.605V13.2h.807V9.9h1.798zm1.518 4.612h.807v-1.976h.018c.232.458.684.743 1.24.743.987 0 1.634-.792 1.634-2.048v-.004c0-1.26-.643-2.047-1.644-2.047-.56 0-.994.285-1.23.754h-.018v-.68h-.807v5.258zm1.845-1.93c-.609 0-1.042-.533-1.042-1.35v-.005c0-.82.43-1.353 1.042-1.353.636 0 1.032.513 1.032 1.353v.004c0 .833-.397 1.35-1.032 1.35zm3.749 1.934c.77 0 1.18-.315 1.472-1.132l1.465-4.13h-.852l-.99 3.21h-.026l-.99-3.21h-.875l1.431 3.95-.067.187c-.134.383-.344.484-.725.484-.108 0-.202-.015-.265-.03v.634c.097.018.265.037.422.037zm5.71-1.237c.964 0 1.603-.492 1.603-1.227v-.007c0-.461-.284-.776-.803-.881v-.03c.422-.098.695-.432.695-.855v-.008c0-.675-.553-1.091-1.457-1.091-.886 0-1.465.42-1.558 1.121l-.004.03h.77l.003-.026c.06-.3.355-.484.777-.484.426 0 .68.199.68.536v.008c0 .352-.242.532-.717.532h-.564v.59h.568c.545 0 .807.18.807.558v.007c0 .36-.306.582-.803.582-.445 0-.736-.173-.826-.492l-.011-.037h-.792l.003.034c.079.697.71 1.14 1.63 1.14zm3.155-.079h.796l1.804-2.771h.034v2.77h.803V9.256h-.796l-1.804 2.76h-.038v-2.76h-.799V13.2zm8.135-3.945h-3.27V9.9h1.23v3.3h.81V9.9h1.23v-.645zm3.035 4.024c.953 0 1.562-.57 1.685-1.197l.011-.04h-.77l-.01.03c-.101.295-.419.543-.897.543-.643 0-1.05-.435-1.065-1.181h2.784v-.274c0-1.185-.677-1.98-1.779-1.98-1.102 0-1.812.825-1.812 2.059v.003c0 1.245.699 2.037 1.853 2.037zm-.037-3.435c.527 0 .912.333.975 1.016H75.82c.075-.66.475-1.016.998-1.016zm5.707 3.356h1.809c.852 0 1.382-.443 1.382-1.133v-.007c0-.484-.336-.836-.844-.904v-.03c.377-.071.669-.442.669-.851v-.008c0-.626-.464-1.012-1.23-1.012h-1.786V13.2zm.8-2.318V9.855h.818c.389 0 .598.176.598.502v.008c0 .349-.224.517-.68.517h-.736zm0 1.718v-1.13h.766c.53 0 .796.176.796.555v.008c0 .375-.247.566-.703.566h-.859z" fill="#fff"/></g><defs><clipPath id="clip0_0_64"><path fill="#fff" d="M0 0h121v36H0z"/></clipPath></defs></svg>