<svg width="121" height="36" viewBox="0 0 121 36" fill="none" xmlns="http://www.w3.org/2000/svg"><g clip-path="url(#clip0_0_86)"><path d="M0 4.8C0 2.149 2.141 0 4.783 0h111.434C118.859 0 121 2.149 121 4.8v26.4c0 2.651-2.141 4.8-4.783 4.8H4.783C2.14 36 0 33.851 0 31.2V4.8z" fill="#000"/><path fill-rule="evenodd" clip-rule="evenodd" d="M0 31.2V4.8C0 2.149 2.141 0 4.783 0h111.434C118.859 0 121 2.149 121 4.8v26.4c0 2.651-2.141 4.8-4.783 4.8H4.783C2.14 36 0 33.851 0 31.2zm.717 0V4.8c0-2.253 1.82-4.08 4.066-4.08h111.434a4.073 4.073 0 014.066 4.08v26.4c0 2.253-1.82 4.08-4.066 4.08H4.783A4.073 4.073 0 01.717 31.2z" fill="#fff" fill-opacity=".3"/><path d="M61.31 19.558c-2.154 0-3.933 1.687-3.933 4.001 0 2.296 1.76 4.002 3.933 4.002 2.172 0 3.932-1.688 3.932-4.002s-1.76-4.001-3.932-4.001zm0 6.41c-1.18 0-2.21-1.005-2.21-2.427 0-1.44 1.03-2.427 2.21-2.427 1.179 0 2.209.986 2.209 2.427 0 1.422-1.03 2.428-2.21 2.428zm-8.558-6.41c-2.172 0-3.933 1.687-3.933 4.001 0 2.296 1.76 4.002 3.933 4.002 2.172 0 3.932-1.688 3.932-4.002s-1.76-4.001-3.932-4.001zm0 6.41c-1.18 0-2.21-1.005-2.21-2.427 0-1.44 1.03-2.427 2.21-2.427s2.21.986 2.21 2.427c0 1.422-1.013 2.428-2.21 2.428zm-10.168-5.177v1.687h3.97c-.113.948-.43 1.65-.9 2.125-.58.587-1.479 1.233-3.07 1.233-2.454 0-4.344-2.01-4.344-4.495 0-2.485 1.891-4.533 4.344-4.533 1.329 0 2.284.53 2.996 1.214l1.18-1.195c-.994-.967-2.323-1.707-4.176-1.707-3.353 0-6.162 2.788-6.162 6.183s2.81 6.183 6.162 6.183c1.816 0 3.165-.607 4.25-1.745 1.105-1.12 1.442-2.694 1.442-3.965a5.91 5.91 0 00-.093-1.062l-5.6.077zm41.608 1.308c-.318-.892-1.329-2.541-3.352-2.541-2.023 0-3.69 1.612-3.69 4.001 0 2.238 1.667 4.002 3.877 4.002 1.798 0 2.828-1.119 3.258-1.764l-1.328-.91c-.45.664-1.05 1.1-1.93 1.1-.88 0-1.497-.399-1.891-1.214l5.224-2.22-.168-.454zm-5.318 1.347c-.037-1.537 1.18-2.333 2.04-2.333.694 0 1.255.342 1.461.854l-3.5 1.48zm-4.251 3.85h1.723V15.575h-1.723v11.721zm-2.808-6.847h-.056c-.393-.474-1.123-.891-2.06-.891-1.966 0-3.745 1.764-3.745 4.001 0 2.238 1.797 3.983 3.745 3.983.936 0 1.666-.417 2.06-.91h.056v.569c0 1.537-.806 2.351-2.097 2.351-1.05 0-1.705-.777-1.967-1.422l-1.497.645c.43 1.062 1.573 2.37 3.463 2.37 2.023 0 3.727-1.213 3.727-4.153v-7.188h-1.63v.645zm-1.966 5.52c-1.18 0-2.172-1.006-2.172-2.409 0-1.402.993-2.427 2.172-2.427 1.161 0 2.097 1.025 2.097 2.427 0 1.384-.937 2.409-2.097 2.409zm22.377-10.394h-4.12v11.721h1.723v-4.438h2.397c1.91 0 3.782-1.404 3.782-3.642 0-2.237-1.872-3.641-3.782-3.641zm.055 5.652h-2.434v-4.021h2.434c1.274 0 2.023 1.08 2.023 2.01-.018.91-.748 2.011-2.023 2.011zm10.6-1.688c-1.236 0-2.528.55-3.052 1.802l1.517.645c.337-.645.936-.854 1.573-.854.899 0 1.798.55 1.816 1.517v.114c-.318-.19-.973-.456-1.797-.456-1.648 0-3.315.93-3.315 2.637 0 1.575 1.348 2.58 2.846 2.58 1.162 0 1.798-.532 2.191-1.157h.056v.91h1.666v-4.495c-.018-2.067-1.535-3.243-3.501-3.243zm-.206 6.41c-.562 0-1.349-.284-1.349-.985 0-.91.974-1.252 1.817-1.252.748 0 1.104.17 1.573.398a2.082 2.082 0 01-2.041 1.84zm9.718-6.144l-1.966 5.064h-.056l-2.04-5.064h-1.854l3.071 7.093-1.742 3.964h1.798l4.699-11.057h-1.91zm-15.43 7.491h1.724V15.575h-1.723v11.721zM41.629 10.081v1.74h-.717V10.8h-3.294v1.021h-.716v-1.74h.535c.179-.25.31-.612.395-1.082.085-.475.128-.99.128-1.546V5.99h3.14v4.092h.529zm-1.28 0V6.708h-1.646v.873c0 .502-.04.968-.12 1.398a3.89 3.89 0 01-.349 1.102h2.116zm4.321.826a2.48 2.48 0 01-1.266-.329 2.445 2.445 0 01-.898-.914 2.569 2.569 0 01-.321-1.27c0-.461.107-.882.321-1.263a2.445 2.445 0 012.163-1.25 2.443 2.443 0 012.156 1.25c.219.38.328.802.328 1.263 0 .462-.11.885-.328 1.27a2.39 2.39 0 01-.89.914c-.38.22-.802.33-1.266.33zm0-.719c.316 0 .606-.076.87-.228.263-.152.47-.363.622-.632.152-.273.228-.584.228-.934 0-.35-.076-.658-.228-.927a1.644 1.644 0 00-.623-.639 1.708 1.708 0 00-.87-.228 1.694 1.694 0 00-1.5.867 1.855 1.855 0 00-.228.927c0 .35.076.66.228.934a1.708 1.708 0 001.5.86zm5.538.719c-.465 0-.889-.11-1.272-.329a2.377 2.377 0 01-.904-.907 2.54 2.54 0 01-.328-1.277c0-.466.109-.891.328-1.277a2.38 2.38 0 01.904-.907c.383-.22.807-.33 1.272-.33.361 0 .69.068.984.202.299.135.563.33.79.585l-.535.518a1.612 1.612 0 00-.55-.437c-.2-.099-.43-.148-.69-.148-.32 0-.615.074-.883.222a1.641 1.641 0 00-.63.631 1.837 1.837 0 00-.234.941c0 .359.078.674.235.948.156.268.365.477.629.625.268.147.563.221.884.221.535 0 .99-.224 1.366-.672l.542.524a2.445 2.445 0 01-1.908.867zm3.716-4.199h-1.339v-.72h3.428v.72h-1.339V10.8h-.75V6.708zm3.331 4.2a.931.931 0 01-.422-.088v-.732a.85.85 0 00.402.12c.12 0 .216-.022.288-.066a.632.632 0 00.194-.27l.167-.349-1.593-3.534h.837l1.118 2.667h.04L59.41 5.99h.837l-1.835 4.045c-.134.3-.297.522-.489.665-.187.14-.41.209-.67.209zm3.643-4.919h3.569V10.8h-.75V6.708h-2.07V10.8h-.75V5.989zm4.662 0h.75v1.995h2.223V5.99h.743v4.81h-.743V8.697H66.31V10.8h-.75V5.989zm6.99 4.918a2.48 2.48 0 01-1.266-.329 2.446 2.446 0 01-.897-.914 2.569 2.569 0 01-.321-1.27c0-.461.107-.882.321-1.263a2.446 2.446 0 012.163-1.25 2.443 2.443 0 012.156 1.25c.219.38.328.802.328 1.263 0 .462-.11.885-.328 1.27a2.39 2.39 0 01-.89.914c-.38.22-.802.33-1.266.33zm0-.719c.317 0 .607-.076.87-.228.264-.152.471-.363.623-.632a1.89 1.89 0 00.228-.934c0-.35-.076-.658-.228-.927a1.641 1.641 0 00-.623-.639 1.706 1.706 0 00-.87-.228 1.694 1.694 0 00-1.5.867 1.855 1.855 0 00-.228.927c0 .35.077.66.228.934a1.708 1.708 0 001.5.86zm4.91-4.199h1.802c.254 0 .488.056.703.168.218.112.392.266.522.463s.194.415.194.652a1.104 1.104 0 01-.643 1.015v.04c.241.085.435.226.583.423.151.198.227.428.227.693 0 .264-.069.5-.207.705a1.374 1.374 0 01-.55.484 1.674 1.674 0 01-.75.168h-1.88V5.989zm1.768 2.016a.683.683 0 00.516-.202.638.638 0 00.006-.92.644.644 0 00-.495-.202H78.21v1.324h1.018zm.114 2.096a.706.706 0 00.542-.215.695.695 0 00-.007-.994c-.138-.144-.325-.215-.562-.215H78.21V10.1h1.132z" fill="#fff"/><path d="M25.513 21.86c2.865-1.594 5.037-2.808 5.225-2.902.598-.323 1.217-1.176 0-1.84-.394-.208-2.51-1.384-5.225-2.901l-3.763 3.85 3.763 3.793z" fill="#FFD900"/><path d="M21.75 18.067L9.765 30.3c.281.038.599-.038.973-.246.787-.436 9.12-5.045 14.775-8.193l-3.764-3.794z" fill="#F43249"/><path d="M21.75 18.066l3.763-3.83S11.581 6.534 10.738 6.08c-.317-.19-.673-.247-.991-.19L21.75 18.065z" fill="#00EE76"/><path d="M21.75 18.067L9.747 5.89c-.487.114-.9.55-.9 1.44v21.53c0 .816.32 1.403.918 1.46L21.75 18.066z" fill="#00D3FF"/></g><defs><clipPath id="clip0_0_86"><path fill="#fff" d="M0 0h121v36H0z"/></clipPath></defs></svg>