<?xml version="1.0" encoding="utf-8"?><svg viewBox="0 0 40 40" xmlns="http://www.w3.org/2000/svg" xmlns:xlink="http://www.w3.org/1999/xlink"><style>:root>svg{display:none}:root>svg:target{display:block}</style><svg fill="none" viewBox="0 0 13 13" id="arrow" xmlns="http://www.w3.org/2000/svg"><path stroke="#fff" d="M11.868 0v12M12 .5H0M11.722.985L.985 11.722"/></svg><svg fill="none" viewBox="0 0 24 13" id="burger" xmlns="http://www.w3.org/2000/svg"><path stroke="#212529" d="M0 .5h24M0 6.5h24M10 12.5h14"/></svg><svg fill="none" viewBox="0 0 24 13" id="burger-active" xmlns="http://www.w3.org/2000/svg"><path stroke="#ddd7c0" d="M0 .5h24M0 6.5h24M10 12.5h14"/></svg><svg fill="#212529" viewBox="0 0 24 24" id="close" xmlns="http://www.w3.org/2000/svg"><path fill-rule="evenodd" clip-rule="evenodd" d="M3.293 3.293a1 1 0 011.414 0L12 10.586l7.293-7.293a1 1 0 111.414 1.414L13.414 12l7.293 7.293a1 1 0 01-1.414 1.414L12 13.414l-7.293 7.293a1 1 0 01-1.414-1.414L10.586 12 3.293 4.707a1 1 0 010-1.414z"/></svg><svg fill="#ddd7c0" viewBox="0 0 24 24" id="close-active" xmlns="http://www.w3.org/2000/svg"><path fill-rule="evenodd" clip-rule="evenodd" d="M3.293 3.293a1 1 0 011.414 0L12 10.586l7.293-7.293a1 1 0 111.414 1.414L13.414 12l7.293 7.293a1 1 0 01-1.414 1.414L12 13.414l-7.293 7.293a1 1 0 01-1.414-1.414L10.586 12 3.293 4.707a1 1 0 010-1.414z"/></svg><svg fill="none" viewBox="0 0 40 40" id="quotes" xmlns="http://www.w3.org/2000/svg"><path d="M16.638 5v12.318c0 9.507-6.218 15.95-14.971 17.682L.008 31.415c4.054-1.528 6.659-6.063 6.659-9.748H0V5h16.638zM40 5v12.318C40 26.825 33.753 33.27 25 35l-1.66-3.585c4.055-1.528 6.66-6.063 6.66-9.748h-6.638V5H40z" fill="#212529"/></svg></svg>